<svg width="460" height="262" viewBox="0 0 460 262" fill="none" xmlns="http://www.w3.org/2000/svg">
<g clip-path="url(#clip0_93_123)">
<path d="M460 262H0V12H369V18H6V256H454V18H421V12H460V262Z" fill="#DBE9ED"/>
<path d="M373 7.47601V18.69H387.502C387.067 21.3001 385.741 23.6695 383.758 25.3795C381.775 27.0896 379.264 28.0301 376.667 28.035V31.773C380.555 31.7686 384.283 30.1918 387.033 27.3888C389.782 24.5857 391.329 20.7852 391.333 16.821V0H380.333C378.388 0 376.523 0.787648 375.148 2.18967C373.773 3.59169 373 5.49325 373 7.47601V7.47601Z" fill="#DBE9ED"/>
<path d="M406 0C404.055 0 402.19 0.787648 400.815 2.18967C399.44 3.59169 398.667 5.49325 398.667 7.47601V18.69H413.169C412.734 21.3001 411.408 23.6695 409.425 25.3795C407.442 27.0896 404.931 28.0301 402.334 28.035V31.773C406.222 31.7686 409.95 30.1918 412.7 27.3888C415.449 24.5857 416.996 20.7852 417 16.821V0H406Z" fill="#DBE9ED"/>
</g>
<defs>
<clipPath id="clip0_93_123">
<rect width="460" height="262" fill="white"/>
</clipPath>
</defs>
</svg>
